<svg enable-background="new 0 0 512 512" height="512" viewBox="0 0 512 512" width="512" xmlns="http://www.w3.org/2000/svg"><g id="_x31_09_Refresh"><g><path d="m265.462 216.052v-37.898c-83.634 0-156.087 48.132-190.998 118.233-5.421 10.885-21.821 6.983-22.197-5.171-.07-2.253-.105-4.515-.105-6.787 0-117.808 95.491-213.299 213.299-213.299v-37.897c0-10.247 12.202-15.584 19.726-8.628l98.871 91.41c5.031 4.652 5.031 12.604 0 17.255l-98.871 91.409c-7.524 6.957-19.725 1.62-19.725-8.627z" fill="#b8daff"/><path d="m246.539 295.943v37.898c83.634 0 156.087-48.132 190.998-118.233 5.421-10.885 21.821-6.983 22.197 5.171.07 2.253.105 4.515.105 6.787 0 117.808-95.491 213.298-213.299 213.298v37.898c0 10.247-12.202 15.584-19.726 8.628l-98.871-91.41c-5.031-4.652-5.031-12.604 0-17.255l98.871-91.409c7.523-6.957 19.725-1.62 19.725 8.627z" fill="#fefdfe"/><g fill="#3f8cf4"><path d="m257.899 33.233v30.455c-119.21 4.043-216.727 103.554-213.2 227.763.638 20.096 27.643 26.145 36.543 8.305 33.898-68.077 101.103-111.196 176.657-113.9v30.196c0 16.886 20.084 25.597 32.42 14.186l98.872-91.409c8.266-7.647 8.269-20.723 0-28.371l-98.872-91.409c-12.344-11.421-32.42-2.688-32.42 14.184zm121.022 94.483-98.872 91.409c-2.69 2.471-7.019.588-7.019-3.074v-37.895c0-4.182-3.384-7.566-7.566-7.566-84.383 0-160.166 46.909-197.773 122.419-1.899 3.858-7.728 2.298-7.861-2.017-3.583-117.474 90.973-212.298 205.635-212.298 4.182 0 7.566-3.384 7.566-7.566v-37.895c0-3.635 4.318-5.563 7.019-3.074l98.872 91.409c1.79 1.656 1.793 4.489-.001 6.148z"/><path d="m221.681 281.757-98.872 91.409c-8.266 7.647-8.269 20.722 0 28.371l98.872 91.409c12.395 11.449 32.42 2.649 32.42-14.186v-30.455c119.21-4.043 216.727-103.554 213.2-227.762-.635-20.01-27.613-26.231-36.543-8.305-33.898 68.077-101.103 111.196-176.657 113.9v-30.196c0-16.864-20.045-25.602-32.42-14.185zm222.627-62.772c1.897-3.818 7.728-2.322 7.861 2.017 3.585 117.474-90.972 212.298-205.634 212.298-4.182 0-7.566 3.384-7.566 7.566v37.895c0 3.672-4.345 5.539-7.019 3.074l-98.872-91.409c-1.791-1.655-1.794-4.488 0-6.147l98.872-91.409c2.697-2.486 7.019-.569 7.019 3.074v37.895c0 4.182 3.384 7.566 7.566 7.566 84.383-.002 160.166-46.911 197.773-122.42z"/></g></g></g></svg>